# xmcd
#
# Track frame offsets:
#	150
#	16251
#	37242
#	55001
#	77887
#	98014
#	114993
#	133950
#	151932
#	164898
#	178449
#
# Disc length: 2607 seconds
#
# Revision: 1
# Processed by: cddbd v1.5.2PL0 Copyright (c) Steve Scherf et al.
# Submitted via: audiograbber 1.83.01
#
DISCID=950a2d0b
DTITLE=Various artist - Limhamn-Bronshoj Bluesfestival 2002
DYEAR=2002
DGENRE=Blues
TTITLE0=Louise Hoffsten - God don't ever change
TTITLE1=Doug Jay - Keep rocking me baby
TTITLE2=Borge Biceps - House of a rising sun
TTITLE3=Paul Lamb and the King Snakes - Milleninium blues
TTITLE4=Wentus Blues Band - Mississippi girl
TTITLE5=Buckaroos - Let's party
TTITLE6=Delta Blues Band - Put the blame on me
TTITLE7=Mescaleros - I remember the good times
TTITLE8=Krolle Erik Blues Band - Rock Island Line
TTITLE9=L.P. Simonsen - Stuck with the blues
TTITLE10=Nisse Hellberg - Extrem aptit
EXTD=
EXTT0=
EXTT1=
EXTT2=
EXTT3=
EXTT4=
EXTT5=
EXTT6=
EXTT7=
EXTT8=
EXTT9=
EXTT10=
PLAYORDER=
